<svg width="450" height="103" viewBox="0 0 450 103" fill="none" xmlns="http://www.w3.org/2000/svg">
    <g clip-path="url(#clip0_5486_52890)">
        <path fill-rule="evenodd" clip-rule="evenodd" d="M102.012 0.041386V34.9405C101.836 42.4614 102.595 48.8744 100.968 53.8814C98.3367 61.9822 94.153 66.253 87.9933 72.2256C82.9702 77.0954 78.0254 82.0441 73.0794 86.9908C69.1637 90.9058 64.8287 95.4378 60.9983 99.2197C59.6948 100.508 58.9096 101.191 58.0156 102.053V61.4874C58.0739 60.4648 58.1217 59.9023 58.3139 59.1014C58.6522 57.6927 58.8687 56.2527 59.3583 54.9249C60.8965 50.7492 62.7774 47.5544 65.1748 44.3362C67.1628 42.3979 69.0026 40.4579 70.9911 38.5196C72.7689 36.5649 74.4939 35.017 76.2104 33.2996C78.7461 30.7153 81.2817 28.1292 83.8174 25.5449C88.9154 20.4466 92.5885 17.511 93.2133 8.99011C87.8146 8.87357 84.2015 11.0153 81.2817 13.464C80.5122 14.1101 79.6572 15.1327 78.8954 15.8501C78.48 16.2414 78.0424 16.7144 78.0007 16.7449C77.76 16.9205 76.7107 18.0405 76.3598 18.3857C74.9557 19.7692 74.0798 20.5257 72.4826 22.2631C71.8357 22.8596 71.0407 23.7544 70.3937 24.351C68.9185 25.8275 67.5496 27.264 66.0698 28.6762C65.3237 29.4718 64.4287 30.2675 63.6826 31.0623C61.0887 33.6562 58.5078 36.5362 55.48 38.6692C52.0435 41.0892 48.1278 42.7387 43.4 43.7396C40.2243 44.4118 33.5426 44.1875 28.7843 44.1875H0C2.20435 42.0761 12.853 31.3336 14.4661 29.7205C19.7365 24.4509 25.0052 19.1805 30.2757 13.9118C35.3392 8.84748 39.8861 3.88312 47.5756 1.38399C52.9626 -0.367317 60.6 0.041386 67.7093 0.041386H102.012Z" fill="#00B1FF"/>
        <path d="M119.106 53.1417V54.493H115.636V65.8695H113.975V54.493H110.487V53.1417H119.106ZM126.118 55.6799C126.873 55.6799 127.555 55.8443 128.163 56.173C128.772 56.4895 129.247 56.9704 129.588 57.6156C129.941 58.2608 130.117 59.046 130.117 59.9712V65.8695H128.474V60.2086C128.474 59.2103 128.225 58.4495 127.725 57.926C127.226 57.3904 126.545 57.1225 125.68 57.1225C124.803 57.1225 124.103 57.3964 123.58 57.9443C123.068 58.4921 122.813 59.2895 122.813 60.3364V65.8695H121.151V52.3564H122.813V57.2869C123.142 56.7756 123.592 56.3799 124.164 56.0999C124.748 55.8199 125.4 55.6799 126.118 55.6799ZM141.963 60.4825C141.963 60.799 141.944 61.1339 141.908 61.4869H133.91C133.97 62.473 134.305 63.246 134.914 63.806C135.535 64.3538 136.283 64.6278 137.16 64.6278C137.878 64.6278 138.475 64.4634 138.95 64.1347C139.436 63.7938 139.777 63.3434 139.972 62.7834H141.762C141.494 63.7452 140.958 64.5304 140.155 65.1391C139.351 65.7358 138.353 66.0338 137.16 66.0338C136.21 66.0338 135.358 65.8206 134.603 65.3947C133.861 64.9686 133.276 64.366 132.85 63.5869C132.424 62.7956 132.211 61.8826 132.211 60.8478C132.211 59.8129 132.418 58.906 132.832 58.1269C133.246 57.3477 133.824 56.7513 134.567 56.3373C135.322 55.9113 136.186 55.6982 137.16 55.6982C138.11 55.6982 138.95 55.9051 139.68 56.3191C140.41 56.733 140.97 57.3051 141.36 58.0356C141.762 58.7538 141.963 59.5695 141.963 60.4825ZM140.246 60.1356C140.246 59.5025 140.106 58.9608 139.826 58.5104C139.546 58.0478 139.162 57.7008 138.676 57.4695C138.201 57.226 137.671 57.1043 137.087 57.1043C136.247 57.1043 135.528 57.3721 134.932 57.9078C134.348 58.4434 134.013 59.186 133.928 60.1356H140.246ZM153.06 65.9973C152.22 65.9973 151.465 65.8512 150.796 65.5591C150.138 65.2545 149.62 64.8408 149.243 64.3173C148.866 63.7817 148.671 63.1669 148.659 62.473H150.43C150.491 63.0695 150.734 63.5747 151.161 63.9886C151.599 64.3904 152.232 64.5912 153.06 64.5912C153.851 64.5912 154.472 64.3964 154.923 64.0069C155.385 63.6051 155.617 63.0938 155.617 62.473C155.617 61.986 155.482 61.5904 155.215 61.286C154.947 60.9816 154.612 60.7504 154.21 60.5921C153.809 60.4338 153.267 60.2634 152.585 60.0808C151.745 59.8617 151.07 59.6425 150.558 59.4234C150.059 59.2043 149.627 58.8634 149.262 58.4008C148.908 57.926 148.732 57.2929 148.732 56.5017C148.732 55.8078 148.908 55.1929 149.262 54.6573C149.615 54.1217 150.108 53.7077 150.741 53.4156C151.386 53.1234 152.122 52.9773 152.95 52.9773C154.143 52.9773 155.117 53.2756 155.872 53.8721C156.639 54.4686 157.071 55.2599 157.169 56.246H155.343C155.281 55.759 155.026 55.333 154.576 54.9677C154.125 54.5903 153.528 54.4017 152.786 54.4017C152.092 54.4017 151.526 54.5843 151.088 54.9495C150.65 55.3025 150.43 55.8017 150.43 56.4469C150.43 56.9095 150.558 57.2869 150.814 57.5791C151.081 57.8712 151.404 58.0964 151.782 58.2547C152.171 58.4008 152.713 58.5712 153.407 58.766C154.247 58.9973 154.923 59.2286 155.434 59.4599C155.945 59.6791 156.384 60.026 156.749 60.5008C157.114 60.9634 157.297 61.5964 157.297 62.3999C157.297 63.0208 157.132 63.6051 156.804 64.153C156.475 64.7008 155.988 65.1451 155.343 65.486C154.697 65.8271 153.937 65.9973 153.06 65.9973ZM168.872 60.4825C168.872 60.799 168.854 61.1339 168.817 61.4869H160.819C160.88 62.473 161.215 63.246 161.823 63.806C162.444 64.3538 163.193 64.6278 164.069 64.6278C164.788 64.6278 165.384 64.4634 165.859 64.1347C166.346 63.7938 166.687 63.3434 166.882 62.7834H168.671C168.404 63.7452 167.868 64.5304 167.064 65.1391C166.261 65.7358 165.263 66.0338 164.069 66.0338C163.12 66.0338 162.268 65.8206 161.513 65.3947C160.771 64.9686 160.186 64.366 159.76 63.5869C159.334 62.7956 159.121 61.8826 159.121 60.8478C159.121 59.8129 159.328 58.906 159.742 58.1269C160.156 57.3477 160.734 56.7513 161.476 56.3373C162.232 55.9113 163.096 55.6982 164.069 55.6982C165.019 55.6982 165.859 55.9051 166.589 56.3191C167.32 56.733 167.88 57.3051 168.269 58.0356C168.671 58.7538 168.872 59.5695 168.872 60.4825ZM167.155 60.1356C167.155 59.5025 167.016 58.9608 166.735 58.5104C166.456 58.0478 166.072 57.7008 165.585 57.4695C165.11 57.226 164.581 57.1043 163.996 57.1043C163.156 57.1043 162.438 57.3721 161.842 57.9078C161.257 58.4434 160.923 59.186 160.837 60.1356H167.155ZM170.445 60.8478C170.445 59.8129 170.652 58.9121 171.066 58.1451C171.479 57.366 172.052 56.7634 172.782 56.3373C173.525 55.9113 174.371 55.6982 175.321 55.6982C176.55 55.6982 177.56 55.9964 178.352 56.593C179.155 57.1895 179.685 58.0173 179.941 59.0764H178.151C177.98 58.4678 177.646 57.9869 177.147 57.6338C176.66 57.2808 176.051 57.1043 175.321 57.1043C174.371 57.1043 173.604 57.433 173.02 58.0904C172.435 58.7356 172.143 59.6547 172.143 60.8478C172.143 62.053 172.435 62.9843 173.02 63.6417C173.604 64.2991 174.371 64.6278 175.321 64.6278C176.051 64.6278 176.66 64.4573 177.147 64.1164C177.633 63.7756 177.969 63.2886 178.151 62.6556H179.941C179.673 63.6782 179.137 64.4999 178.334 65.1208C177.53 65.7293 176.526 66.0338 175.321 66.0338C174.371 66.0338 173.525 65.8206 172.782 65.3947C172.052 64.9686 171.479 64.366 171.066 63.5869C170.652 62.8077 170.445 61.8947 170.445 60.8478ZM191.032 55.8625V65.8695H189.37V64.3904C189.054 64.9017 188.61 65.3034 188.037 65.5956C187.478 65.8754 186.857 66.0156 186.175 66.0156C185.396 66.0156 184.696 65.8571 184.075 65.5408C183.454 65.2121 182.961 64.7251 182.596 64.0799C182.243 63.4347 182.066 62.6495 182.066 61.7243V55.8625H183.71V61.5051C183.71 62.4912 183.959 63.2521 184.458 63.7877C184.958 64.3112 185.639 64.573 186.503 64.573C187.392 64.573 188.092 64.2991 188.603 63.7512C189.115 63.2034 189.37 62.406 189.37 61.3591V55.8625H191.032ZM195.5 57.4878C195.792 56.9156 196.206 56.4712 196.742 56.1547C197.29 55.8382 197.953 55.6799 198.732 55.6799V57.3964H198.294C196.432 57.3964 195.5 58.4069 195.5 60.4277V65.8695H193.838V55.8625H195.5V57.4878ZM209.781 60.4825C209.781 60.799 209.763 61.1339 209.726 61.4869H201.728C201.789 62.473 202.123 63.246 202.732 63.806C203.353 64.3538 204.102 64.6278 204.978 64.6278C205.696 64.6278 206.293 64.4634 206.768 64.1347C207.254 63.7938 207.595 63.3434 207.79 62.7834H209.58C209.312 63.7452 208.777 64.5304 207.973 65.1391C207.17 65.7358 206.171 66.0338 204.978 66.0338C204.029 66.0338 203.176 65.8206 202.422 65.3947C201.679 64.9686 201.095 64.366 200.669 63.5869C200.242 62.7956 200.03 61.8826 200.03 60.8478C200.03 59.8129 200.236 58.906 200.65 58.1269C201.064 57.3477 201.642 56.7513 202.385 56.3373C203.14 55.9113 204.004 55.6982 204.978 55.6982C205.928 55.6982 206.768 55.9051 207.498 56.3191C208.229 56.733 208.788 57.3051 209.178 58.0356C209.58 58.7538 209.781 59.5695 209.781 60.4825ZM208.064 60.1356C208.064 59.5025 207.924 58.9608 207.644 58.5104C207.364 58.0478 206.98 57.7008 206.494 57.4695C206.019 57.226 205.49 57.1043 204.905 57.1043C204.065 57.1043 203.347 57.3721 202.75 57.9078C202.166 58.4434 201.831 59.186 201.746 60.1356H208.064ZM223.216 59.3138C223.678 59.3869 224.098 59.5756 224.476 59.8799C224.865 60.1843 225.17 60.5616 225.389 61.0121C225.62 61.4626 225.736 61.9434 225.736 62.4547C225.736 63.0999 225.571 63.6843 225.243 64.2078C224.914 64.7191 224.433 65.1269 223.8 65.4312C223.179 65.7234 222.443 65.8695 221.59 65.8695H216.843V53.1417H221.408C222.272 53.1417 223.009 53.2877 223.617 53.5799C224.226 53.8599 224.682 54.2434 224.987 54.7304C225.292 55.2173 225.443 55.7652 225.443 56.3738C225.443 57.1286 225.237 57.7556 224.823 58.2547C224.421 58.7417 223.885 59.0947 223.216 59.3138ZM218.504 58.6382H221.298C222.078 58.6382 222.68 58.4556 223.106 58.0904C223.532 57.7251 223.745 57.2199 223.745 56.5747C223.745 55.9295 223.532 55.4243 223.106 55.0591C222.68 54.6938 222.065 54.5112 221.262 54.5112H218.504V58.6382ZM221.444 64.4999C222.272 64.4999 222.918 64.3051 223.38 63.9156C223.842 63.526 224.074 62.9843 224.074 62.2904C224.074 61.5843 223.831 61.0304 223.343 60.6286C222.856 60.2147 222.205 60.0078 221.39 60.0078H218.504V64.4999H221.444ZM227.421 60.8295C227.421 59.8069 227.628 58.9121 228.042 58.1451C228.455 57.366 229.021 56.7634 229.74 56.3373C230.47 55.9113 231.28 55.6982 232.169 55.6982C233.045 55.6982 233.806 55.8869 234.451 56.2643C235.096 56.6417 235.577 57.1165 235.894 57.6886V55.8625H237.574V65.8695H235.894V64.0069C235.565 64.5912 235.072 65.0782 234.415 65.4678C233.769 65.8454 233.015 66.0338 232.15 66.0338C231.262 66.0338 230.458 65.8147 229.74 65.3764C229.021 64.9382 228.455 64.3234 228.042 63.5321C227.628 62.7408 227.421 61.8399 227.421 60.8295ZM235.894 60.8478C235.894 60.093 235.741 59.4356 235.437 58.8756C235.133 58.3156 234.719 57.8895 234.196 57.5973C233.684 57.2929 233.118 57.1408 232.497 57.1408C231.877 57.1408 231.31 57.2869 230.799 57.5791C230.288 57.8712 229.88 58.2973 229.576 58.8573C229.271 59.4173 229.119 60.0747 229.119 60.8295C229.119 61.5964 229.271 62.266 229.576 62.8382C229.88 63.3982 230.288 63.8303 230.799 64.1347C231.31 64.4269 231.877 64.573 232.497 64.573C233.118 64.573 233.684 64.4269 234.196 64.1347C234.719 63.8303 235.133 63.3982 235.437 62.8382C235.741 62.266 235.894 61.6025 235.894 60.8478ZM239.761 60.8478C239.761 59.8129 239.968 58.9121 240.382 58.1451C240.796 57.366 241.368 56.7634 242.099 56.3373C242.841 55.9113 243.687 55.6982 244.637 55.6982C245.866 55.6982 246.877 55.9964 247.668 56.593C248.472 57.1895 249.001 58.0173 249.257 59.0764H247.467C247.297 58.4678 246.962 57.9869 246.463 57.6338C245.976 57.2808 245.367 57.1043 244.637 57.1043C243.687 57.1043 242.92 57.433 242.336 58.0904C241.752 58.7356 241.46 59.6547 241.46 60.8478C241.46 62.053 241.752 62.9843 242.336 63.6417C242.92 64.2991 243.687 64.6278 244.637 64.6278C245.367 64.6278 245.976 64.4573 246.463 64.1164C246.95 63.7756 247.285 63.2886 247.467 62.6556H249.257C248.989 63.6782 248.454 64.4999 247.65 65.1208C246.847 65.7293 245.842 66.0338 244.637 66.0338C243.687 66.0338 242.841 65.8206 242.099 65.3947C241.368 64.9686 240.796 64.366 240.382 63.5869C239.968 62.8077 239.761 61.8947 239.761 60.8478ZM257.062 65.8695L253.136 61.4504V65.8695H251.474V52.3564H253.136V60.2999L256.989 55.8625H259.308L254.597 60.8478L259.327 65.8695H257.062ZM270.003 60.4825C270.003 60.799 269.984 61.1339 269.948 61.4869H261.95C262.01 62.473 262.345 63.246 262.954 63.806C263.575 64.3538 264.324 64.6278 265.2 64.6278C265.918 64.6278 266.515 64.4634 266.99 64.1347C267.476 63.7938 267.817 63.3434 268.012 62.7834H269.802C269.534 63.7452 268.998 64.5304 268.195 65.1391C267.391 65.7358 266.393 66.0338 265.2 66.0338C264.25 66.0338 263.398 65.8206 262.644 65.3947C261.901 64.9686 261.316 64.366 260.89 63.5869C260.464 62.7956 260.251 61.8826 260.251 60.8478C260.251 59.8129 260.458 58.906 260.872 58.1269C261.286 57.3477 261.864 56.7513 262.607 56.3373C263.362 55.9113 264.226 55.6982 265.2 55.6982C266.15 55.6982 266.99 55.9051 267.72 56.3191C268.45 56.733 269.01 57.3051 269.4 58.0356C269.802 58.7538 270.003 59.5695 270.003 60.4825ZM268.286 60.1356C268.286 59.5025 268.146 58.9608 267.866 58.5104C267.586 58.0478 267.202 57.7008 266.716 57.4695C266.241 57.226 265.711 57.1043 265.127 57.1043C264.287 57.1043 263.568 57.3721 262.972 57.9078C262.388 58.4434 262.053 59.186 261.968 60.1356H268.286ZM277.072 55.6799C278.289 55.6799 279.275 56.0512 280.03 56.7938C280.784 57.5243 281.162 58.5834 281.162 59.9712V65.8695H279.519V60.2086C279.519 59.2103 279.269 58.4495 278.77 57.926C278.271 57.3904 277.589 57.1225 276.725 57.1225C275.848 57.1225 275.148 57.3964 274.625 57.9443C274.113 58.4921 273.858 59.2895 273.858 60.3364V65.8695H272.196V55.8625H273.858V57.2869C274.186 56.7756 274.63 56.3799 275.191 56.0999C275.763 55.8199 276.39 55.6799 277.072 55.6799ZM283.255 60.8295C283.255 59.8069 283.462 58.9121 283.876 58.1451C284.29 57.366 284.857 56.7634 285.575 56.3373C286.305 55.9113 287.121 55.6982 288.022 55.6982C288.801 55.6982 289.525 55.8808 290.195 56.246C290.864 56.599 291.376 57.0678 291.728 57.6521V52.3564H293.409V65.8695H291.728V63.9886C291.4 64.5852 290.913 65.0782 290.268 65.4678C289.623 65.8454 288.867 66.0338 288.003 66.0338C287.114 66.0338 286.305 65.8147 285.575 65.3764C284.857 64.9382 284.29 64.3234 283.876 63.5321C283.462 62.7408 283.255 61.8399 283.255 60.8295ZM291.728 60.8478C291.728 60.093 291.577 59.4356 291.272 58.8756C290.967 58.3156 290.554 57.8895 290.03 57.5973C289.519 57.2929 288.953 57.1408 288.332 57.1408C287.711 57.1408 287.145 57.2869 286.634 57.5791C286.122 57.8712 285.715 58.2973 285.41 58.8573C285.106 59.4173 284.954 60.0747 284.954 60.8295C284.954 61.5964 285.106 62.266 285.41 62.8382C285.715 63.3982 286.122 63.8303 286.634 64.1347C287.145 64.4269 287.711 64.573 288.332 64.573C288.953 64.573 289.519 64.4269 290.03 64.1347C290.554 63.8303 290.967 63.3982 291.272 62.8382C291.577 62.266 291.728 61.6025 291.728 60.8478ZM308.28 53.1417V54.493H302.747V58.7843H307.239V60.1356H302.747V65.8695H301.085V53.1417H308.28ZM314.651 66.0338C313.714 66.0338 312.862 65.8206 312.095 65.3947C311.34 64.9686 310.743 64.366 310.305 63.5869C309.879 62.7956 309.666 61.8826 309.666 60.8478C309.666 59.8251 309.885 58.9243 310.323 58.1451C310.774 57.3539 311.382 56.7513 312.149 56.3373C312.916 55.9113 313.775 55.6982 314.724 55.6982C315.674 55.6982 316.532 55.9113 317.299 56.3373C318.066 56.7513 318.669 57.3477 319.107 58.1269C319.557 58.906 319.782 59.8129 319.782 60.8478C319.782 61.8826 319.552 62.7956 319.089 63.5869C318.639 64.366 318.024 64.9686 317.244 65.3947C316.465 65.8206 315.601 66.0338 314.651 66.0338ZM314.651 64.573C315.248 64.573 315.808 64.4329 316.331 64.153C316.855 63.873 317.275 63.453 317.591 62.893C317.92 62.3329 318.084 61.6512 318.084 60.8478C318.084 60.0443 317.926 59.3626 317.609 58.8025C317.293 58.2425 316.879 57.8286 316.368 57.5608C315.856 57.2808 315.303 57.1408 314.706 57.1408C314.097 57.1408 313.537 57.2808 313.026 57.5608C312.527 57.8286 312.125 58.2425 311.821 58.8025C311.517 59.3626 311.364 60.0443 311.364 60.8478C311.364 61.6634 311.51 62.3512 311.802 62.9112C312.107 63.4712 312.509 63.8913 313.008 64.1712C313.507 64.4391 314.055 64.573 314.651 64.573ZM323.629 57.4878C323.921 56.9156 324.335 56.4712 324.871 56.1547C325.419 55.8382 326.082 55.6799 326.861 55.6799V57.3964H326.423C324.56 57.3964 323.629 58.4069 323.629 60.4277V65.8695H321.967V55.8625H323.629V57.4878ZM343.454 53.1417V65.8695H341.793V60.0991H335.31V65.8695H333.648V53.1417H335.31V58.7295H341.793V53.1417H343.454ZM355.422 60.4825C355.422 60.799 355.404 61.1339 355.367 61.4869H347.369C347.43 62.473 347.765 63.246 348.373 63.806C348.994 64.3538 349.743 64.6278 350.619 64.6278C351.338 64.6278 351.934 64.4634 352.409 64.1347C352.896 63.7938 353.237 63.3434 353.431 62.7834H355.221C354.954 63.7452 354.417 64.5304 353.614 65.1391C352.81 65.7358 351.813 66.0338 350.619 66.0338C349.67 66.0338 348.818 65.8206 348.063 65.3947C347.32 64.9686 346.736 64.366 346.31 63.5869C345.884 62.7956 345.67 61.8826 345.67 60.8478C345.67 59.8129 345.878 58.906 346.291 58.1269C346.705 57.3477 347.284 56.7513 348.026 56.3373C348.781 55.9113 349.645 55.6982 350.619 55.6982C351.569 55.6982 352.409 55.9051 353.139 56.3191C353.87 56.733 354.43 57.3051 354.819 58.0356C355.221 58.7538 355.422 59.5695 355.422 60.4825ZM353.705 60.1356C353.705 59.5025 353.566 58.9608 353.285 58.5104C353.005 58.0478 352.622 57.7008 352.135 57.4695C351.66 57.226 351.13 57.1043 350.546 57.1043C349.706 57.1043 348.988 57.3721 348.391 57.9078C347.807 58.4434 347.472 59.186 347.387 60.1356H353.705ZM356.995 60.8295C356.995 59.8069 357.202 58.9121 357.616 58.1451C358.029 57.366 358.595 56.7634 359.314 56.3373C360.044 55.9113 360.854 55.6982 361.743 55.6982C362.619 55.6982 363.38 55.8869 364.025 56.2643C364.67 56.6417 365.151 57.1165 365.468 57.6886V55.8625H367.148V65.8695H365.468V64.0069C365.139 64.5912 364.646 65.0782 363.989 65.4678C363.343 65.8454 362.588 66.0338 361.724 66.0338C360.835 66.0338 360.032 65.8147 359.314 65.3764C358.595 64.9382 358.029 64.3234 357.616 63.5321C357.202 62.7408 356.995 61.8399 356.995 60.8295ZM365.468 60.8478C365.468 60.093 365.315 59.4356 365.011 58.8756C364.707 58.3156 364.293 57.8895 363.77 57.5973C363.258 57.2929 362.692 57.1408 362.071 57.1408C361.45 57.1408 360.884 57.2869 360.373 57.5791C359.862 57.8712 359.453 58.2973 359.15 58.8573C358.845 59.4173 358.693 60.0747 358.693 60.8295C358.693 61.5964 358.845 62.266 359.15 62.8382C359.453 63.3982 359.862 63.8303 360.373 64.1347C360.884 64.4269 361.45 64.573 362.071 64.573C362.692 64.573 363.258 64.4269 363.77 64.1347C364.293 63.8303 364.707 63.3982 365.011 62.8382C365.315 62.266 365.468 61.6025 365.468 60.8478ZM371.617 52.3564V65.8695H369.955V52.3564H371.617ZM376.477 57.2321V63.1304C376.477 63.6173 376.58 63.9643 376.787 64.1712C376.994 64.366 377.353 64.4634 377.864 64.4634H379.088V65.8695H377.59C376.665 65.8695 375.971 65.6562 375.509 65.2304C375.046 64.8043 374.815 64.1043 374.815 63.1304V57.2321H373.518V55.8625H374.815V53.3425H376.477V55.8625H379.088V57.2321H376.477ZM386.068 55.6799C386.823 55.6799 387.505 55.8443 388.113 56.173C388.722 56.4895 389.197 56.9704 389.538 57.6156C389.891 58.2608 390.067 59.046 390.067 59.9712V65.8695H388.424V60.2086C388.424 59.2103 388.175 58.4495 387.675 57.926C387.176 57.3904 386.495 57.1225 385.63 57.1225C384.753 57.1225 384.053 57.3964 383.53 57.9443C383.018 58.4921 382.763 59.2895 382.763 60.3364V65.8695H381.101V52.3564H382.763V57.2869C383.092 56.7756 383.542 56.3799 384.114 56.0999C384.698 55.8199 385.35 55.6799 386.068 55.6799ZM399.721 58.4738V59.8799H392.435V58.4738H399.721ZM410.673 53.1417V54.493H407.204V65.8695H405.542V54.493H402.054V53.1417H410.673ZM421.85 60.4825C421.85 60.799 421.831 61.1339 421.795 61.4869H413.797C413.857 62.473 414.192 63.246 414.801 63.806C415.422 64.3538 416.17 64.6278 417.047 64.6278C417.765 64.6278 418.362 64.4634 418.837 64.1347C419.323 63.7938 419.664 63.3434 419.859 62.7834H421.649C421.381 63.7452 420.845 64.5304 420.042 65.1391C419.238 65.7358 418.24 66.0338 417.047 66.0338C416.097 66.0338 415.245 65.8206 414.49 65.3947C413.748 64.9686 413.163 64.366 412.737 63.5869C412.311 62.7956 412.098 61.8826 412.098 60.8478C412.098 59.8129 412.305 58.906 412.719 58.1269C413.133 57.3477 413.711 56.7513 414.454 56.3373C415.208 55.9113 416.073 55.6982 417.047 55.6982C417.997 55.6982 418.837 55.9051 419.567 56.3191C420.297 56.733 420.857 57.3051 421.247 58.0356C421.649 58.7538 421.85 59.5695 421.85 60.4825ZM420.133 60.1356C420.133 59.5025 419.993 58.9608 419.713 58.5104C419.433 58.0478 419.049 57.7008 418.563 57.4695C418.088 57.226 417.558 57.1043 416.974 57.1043C416.134 57.1043 415.415 57.3721 414.819 57.9078C414.235 58.4434 413.9 59.186 413.815 60.1356H420.133ZM423.422 60.8478C423.422 59.8129 423.629 58.9121 424.043 58.1451C424.457 57.366 425.029 56.7634 425.759 56.3373C426.502 55.9113 427.348 55.6982 428.298 55.6982C429.527 55.6982 430.538 55.9964 431.329 56.593C432.132 57.1895 432.662 58.0173 432.918 59.0764H431.128C430.958 58.4678 430.623 57.9869 430.124 57.6338C429.637 57.2808 429.028 57.1043 428.298 57.1043C427.348 57.1043 426.581 57.433 425.997 58.0904C425.412 58.7356 425.12 59.6547 425.12 60.8478C425.12 62.053 425.412 62.9843 425.997 63.6417C426.581 64.2991 427.348 64.6278 428.298 64.6278C429.028 64.6278 429.637 64.4573 430.124 64.1164C430.611 63.7756 430.945 63.2886 431.128 62.6556H432.918C432.65 63.6782 432.114 64.4999 431.311 65.1208C430.507 65.7293 429.503 66.0338 428.298 66.0338C427.348 66.0338 426.502 65.8206 425.759 65.3947C425.029 64.9686 424.457 64.366 424.043 63.5869C423.629 62.8077 423.422 61.8947 423.422 60.8478ZM440.102 55.6799C440.857 55.6799 441.538 55.8443 442.147 56.173C442.756 56.4895 443.23 56.9704 443.572 57.6156C443.924 58.2608 444.101 59.046 444.101 59.9712V65.8695H442.458V60.2086C442.458 59.2103 442.208 58.4495 441.709 57.926C441.209 57.3904 440.528 57.1225 439.664 57.1225C438.787 57.1225 438.087 57.3964 437.564 57.9443C437.052 58.4921 436.797 59.2895 436.797 60.3364V65.8695H435.135V52.3564H436.797V57.2869C437.125 56.7756 437.575 56.3799 438.148 56.0999C438.732 55.8199 439.383 55.6799 440.102 55.6799ZM447.345 65.9791C447.029 65.9791 446.761 65.8695 446.542 65.6504C446.322 65.4312 446.213 65.1634 446.213 64.8469C446.213 64.5304 446.322 64.2625 446.542 64.0434C446.761 63.8243 447.029 63.7147 447.345 63.7147C447.65 63.7147 447.905 63.8243 448.112 64.0434C448.331 64.2625 448.441 64.5304 448.441 64.8469C448.441 65.1634 448.331 65.4312 448.112 65.6504C447.905 65.8695 447.65 65.9791 447.345 65.9791Z" fill="#00B1FF"/>
        <path d="M111.434 23.0316C111.434 20.1489 112.098 17.5631 113.427 15.2739C114.783 12.9848 116.606 11.2044 118.895 9.93264C121.212 8.63266 123.742 7.98264 126.483 7.98264C129.62 7.98264 132.404 8.75984 134.834 10.3142C137.293 11.8402 139.073 14.0164 140.176 16.8424H134.368C133.605 15.2881 132.545 14.1294 131.189 13.3663C129.832 12.6033 128.264 12.2218 126.483 12.2218C124.533 12.2218 122.795 12.6598 121.269 13.5359C119.743 14.412 118.542 15.6696 117.666 17.3087C116.818 18.9478 116.394 20.8554 116.394 23.0316C116.394 25.2077 116.818 27.1153 117.666 28.7544C118.542 30.3935 119.743 31.6652 121.269 32.5696C122.795 33.4457 124.533 33.8837 126.483 33.8837C128.264 33.8837 129.832 33.5022 131.189 32.7392C132.545 31.9761 133.605 30.8174 134.368 29.2631H140.176C139.073 32.0891 137.293 34.2652 134.834 35.7913C132.404 37.3174 129.62 38.0805 126.483 38.0805C123.713 38.0805 121.184 37.4446 118.895 36.1729C116.606 34.8729 114.783 33.0783 113.427 30.7892C112.098 28.5 111.434 25.9142 111.434 23.0316ZM144.221 26.0413C144.221 23.6957 144.702 21.6185 145.662 19.8098C146.652 18.0011 147.98 16.6022 149.647 15.6131C151.343 14.5957 153.208 14.087 155.243 14.087C157.08 14.087 158.677 14.4544 160.033 15.1892C161.418 15.8957 162.52 16.7859 163.34 17.8598V14.4685H168.215V37.8261H163.34V34.35C162.52 35.4522 161.404 36.3707 159.991 37.1055C158.578 37.8403 156.967 38.2076 155.158 38.2076C153.152 38.2076 151.315 37.6989 149.647 36.6816C147.98 35.6359 146.652 34.1946 145.662 32.3576C144.702 30.4924 144.221 28.387 144.221 26.0413ZM163.34 26.1261C163.34 24.5152 163 23.1163 162.322 21.9294C161.673 20.7424 160.81 19.8381 159.736 19.2163C158.663 18.5946 157.504 18.2837 156.26 18.2837C155.017 18.2837 153.858 18.5946 152.784 19.2163C151.711 19.8098 150.834 20.7 150.156 21.887C149.506 23.0457 149.181 24.4305 149.181 26.0413C149.181 27.6522 149.506 29.0653 150.156 30.2805C150.834 31.4957 151.711 32.4283 152.784 33.0783C153.886 33.7 155.045 34.0109 156.26 34.0109C157.504 34.0109 158.663 33.7 159.736 33.0783C160.81 32.4566 161.673 31.5522 162.322 30.3652C163 29.1501 163.34 27.737 163.34 26.1261ZM179.395 17.8598C180.101 16.6729 181.034 15.7544 182.193 15.1044C183.38 14.4261 184.778 14.087 186.389 14.087V19.0892H185.16C183.267 19.0892 181.825 19.5696 180.836 20.5305C179.875 21.4913 179.395 23.1587 179.395 25.5326V37.8261H174.562V14.4685H179.395V17.8598ZM189.22 26.0413C189.22 23.6957 189.701 21.6185 190.662 19.8098C191.651 18.0011 192.98 16.6022 194.647 15.6131C196.342 14.5957 198.222 14.087 200.285 14.087C201.811 14.087 203.309 14.4261 204.778 15.1044C206.276 15.7544 207.463 16.6305 208.339 17.7326V6.45655H213.214V37.8261H208.339V34.3076C207.548 35.4381 206.446 36.3707 205.032 37.1055C203.648 37.8403 202.051 38.2076 200.242 38.2076C198.207 38.2076 196.342 37.6989 194.647 36.6816C192.98 35.6359 191.651 34.1946 190.662 32.3576C189.701 30.4924 189.22 28.387 189.22 26.0413ZM208.339 26.1261C208.339 24.5152 208 23.1163 207.322 21.9294C206.672 20.7424 205.81 19.8381 204.736 19.2163C203.662 18.5946 202.503 18.2837 201.26 18.2837C200.016 18.2837 198.858 18.5946 197.783 19.2163C196.71 19.8098 195.833 20.7 195.155 21.887C194.506 23.0457 194.18 24.4305 194.18 26.0413C194.18 27.6522 194.506 29.0653 195.155 30.2805C195.833 31.4957 196.71 32.4283 197.783 33.0783C198.886 33.7 200.045 34.0109 201.26 34.0109C202.503 34.0109 203.662 33.7 204.736 33.0783C205.81 32.4566 206.672 31.5522 207.322 30.3652C208 29.1501 208.339 27.737 208.339 26.1261ZM222.02 11.3739C221.144 11.3739 220.409 11.0772 219.816 10.4837C219.222 9.89025 218.926 9.15544 218.926 8.27938C218.926 7.40331 219.222 6.66851 219.816 6.07503C220.409 5.48155 221.144 5.18481 222.02 5.18481C222.868 5.18481 223.589 5.48155 224.182 6.07503C224.776 6.66851 225.072 7.40331 225.072 8.27938C225.072 9.15544 224.776 9.89025 224.182 10.4837C223.589 11.0772 222.868 11.3739 222.02 11.3739ZM224.394 14.4685V37.8261H219.562V14.4685H224.394ZM242.524 14.087C244.36 14.087 246 14.4685 247.441 15.2316C248.911 15.9946 250.055 17.125 250.875 18.6229C251.694 20.1207 252.104 21.9294 252.104 24.0489V37.8261H247.314V24.7696C247.314 22.6783 246.791 21.0816 245.746 19.9794C244.7 18.849 243.273 18.2837 241.464 18.2837C239.655 18.2837 238.214 18.849 237.14 19.9794C236.094 21.0816 235.572 22.6783 235.572 24.7696V37.8261H230.739V14.4685H235.572V17.1392C236.363 16.1783 237.366 15.4294 238.582 14.8924C239.825 14.3555 241.139 14.087 242.524 14.087ZM256.658 26.0413C256.658 23.6957 257.138 21.6185 258.099 19.8098C259.088 18.0011 260.416 16.6022 262.084 15.6131C263.78 14.5957 265.645 14.087 267.68 14.087C269.516 14.087 271.113 14.4544 272.47 15.1892C273.854 15.8957 274.957 16.7859 275.776 17.8598V14.4685H280.651V37.8261H275.776V34.35C274.957 35.4522 273.84 36.3707 272.427 37.1055C271.014 37.8403 269.403 38.2076 267.595 38.2076C265.588 38.2076 263.751 37.6989 262.084 36.6816C260.416 35.6359 259.088 34.1946 258.099 32.3576C257.138 30.4924 256.658 28.387 256.658 26.0413ZM275.776 26.1261C275.776 24.5152 275.437 23.1163 274.759 21.9294C274.109 20.7424 273.247 19.8381 272.173 19.2163C271.099 18.5946 269.94 18.2837 268.697 18.2837C267.453 18.2837 266.294 18.5946 265.221 19.2163C264.147 19.8098 263.271 20.7 262.593 21.887C261.942 23.0457 261.618 24.4305 261.618 26.0413C261.618 27.6522 261.942 29.0653 262.593 30.2805C263.271 31.4957 264.147 32.4283 265.221 33.0783C266.323 33.7 267.481 34.0109 268.697 34.0109C269.94 34.0109 271.099 33.7 272.173 33.0783C273.247 32.4566 274.109 31.5522 274.759 30.3652C275.437 29.1501 275.776 27.737 275.776 26.1261ZM291.831 6.45655V37.8261H286.998V6.45655H291.831Z" fill="#00B1FF"/>
    </g>
    <defs>
        <clipPath id="clip0_5486_52890">
            <rect width="450" height="102.391" fill="white"/>
        </clipPath>
    </defs>
</svg>
