<svg width="120" height="83" viewBox="0 0 120 83" fill="none" xmlns="http://www.w3.org/2000/svg">
<g clip-path="url(#clip0_349_805)">
<path fill-rule="evenodd" clip-rule="evenodd" d="M60.1507 47.986C47.0559 47.979 36.0549 38.2215 36 24.007C36.0549 9.76508 47.6258 0 60.1787 0C74.5303 0 83.9451 12.8687 83.9451 24.0065C83.9451 27.7972 83.9451 27.9479 82.6817 31.5805L54.3695 31.5945C53.6964 31.5875 53.154 30.8734 53.154 30.2003C53.154 29.5272 53.7104 29.1494 54.3765 29.1494L60.1378 29.0945V28.4354H50.6815C50.0084 28.4354 49.466 27.893 49.466 27.2199C49.466 26.5467 50.0224 26.0183 50.6885 26.0183H60.1372L60.1302 25.215H49.5004C48.8273 25.208 48.2849 24.6656 48.2849 23.9925C48.2849 23.3193 48.8343 22.7769 49.5004 22.7769H60.1372V21.9666H51.9379C51.2648 21.9596 50.7224 21.4172 50.7224 20.7441C50.7224 20.0709 51.2788 19.563 51.9379 19.5764H66.2692V18.7193H61.3043C60.6586 18.7123 60.1302 18.1699 60.1302 17.4968C60.1302 16.8236 60.7549 16.3087 61.3043 16.3087L66.2143 16.2947C69.8609 16.2947 72.3188 19.577 72.3188 21.9666H74.2758C73.7883 15.7862 68.2606 9.76401 60.1781 9.771C50.7364 9.76508 45.9636 17.5656 45.9911 24.007C45.9636 31.595 52.1236 38.0633 59.8558 38.2215C59.8558 35.8388 62.3143 32.556 65.9603 32.556L70.8703 32.57C71.4197 32.57 72.0444 33.0849 72.0444 33.7581C72.0444 34.4312 71.5155 34.9736 70.8703 34.9806H65.9054V35.8388H80.3465C81.0056 35.8249 81.562 36.3333 81.562 37.0065C81.562 37.6796 81.0196 38.222 80.3465 38.229H72.0374V39.0393H82.7845C83.4506 39.0393 84 39.5817 84 40.2549C84 40.928 83.4576 41.4704 82.7845 41.4774H72.0444L72.0374 42.2807H81.5964C82.2626 42.2807 82.8189 42.8097 82.8189 43.4823C82.8189 44.1554 82.2765 44.6978 81.6034 44.6978H72.0374V45.4667L77.9084 45.5216C78.5746 45.5216 79.1309 45.8993 79.1309 46.5725C79.1309 47.2456 78.5885 47.9596 77.9154 47.9666L60.1507 47.986Z" fill="#084B83"/>
<path d="M10.1058 54.1763C11.0938 54.6962 11.8552 55.3982 12.39 56.2821C12.9248 57.166 13.1922 58.1503 13.1922 59.2348C13.1922 60.3192 12.9434 61.2923 12.4457 62.154C11.948 63.0156 11.2015 63.6953 10.2061 64.193C9.21077 64.6906 8.00743 64.9395 6.5961 64.9395H3.52089V69.686H0V53.3963H6.61838C7.95543 53.3963 9.11792 53.6563 10.1058 54.1763ZM9.00278 61.1066C9.43361 60.5867 9.64902 59.9627 9.64902 59.2348C9.64902 58.7594 9.5376 58.31 9.31476 57.8866C9.09192 57.4632 8.76137 57.1178 8.32312 56.8504C7.88486 56.5829 7.36119 56.4492 6.75209 56.4492H3.52089V61.8866H7.10863C7.94058 61.8866 8.57196 61.6266 9.00278 61.1066ZM18.2173 69.3963C17.1996 68.9952 16.3268 68.3155 15.5989 67.3573C14.8709 66.3991 14.507 65.1475 14.507 63.6024C14.507 62.0574 14.8747 60.8095 15.61 59.8587C16.3454 58.9079 17.2256 58.232 18.2507 57.8309C19.2758 57.4297 20.2488 57.2292 21.1699 57.2292C22.2396 57.2292 23.2572 57.4669 24.2228 57.9423C25.1885 58.4177 25.9796 59.1159 26.5961 60.037C27.2126 60.9581 27.5357 62.05 27.5655 63.3127C27.5655 63.699 27.558 64.0333 27.5432 64.3155C27.5283 64.5978 27.5135 64.7761 27.4986 64.8504H17.8273C18.0056 65.712 18.4513 66.2988 19.1643 66.6108C19.8774 66.9228 20.546 67.0788 21.1699 67.0788C21.9721 67.0788 22.611 66.9339 23.0864 66.6442C23.5617 66.3545 23.9703 66.024 24.312 65.6526L26.8969 67.1456C25.5005 69.0472 23.5915 69.998 21.1699 69.998C20.2191 69.998 19.2349 69.7974 18.2173 69.3963ZM18.8969 60.8281C18.3175 61.2812 17.9907 61.8346 17.9164 62.4882H24.0446C24 62.102 23.8514 61.7306 23.5989 61.374C23.3463 61.0175 23.0084 60.7241 22.585 60.4938C22.1616 60.2635 21.6825 60.1484 21.1476 60.1484C20.2266 60.1484 19.4763 60.375 18.8969 60.8281ZM34.3844 65.3183C34.3844 65.8383 34.4735 66.2728 34.6518 66.6219C34.8301 66.9711 35.246 67.1456 35.8997 67.1456C36.1968 67.1456 36.4791 67.1308 36.7465 67.101V69.9088C36.2117 69.9683 35.714 69.998 35.2535 69.998C34.3027 69.998 33.5339 69.92 32.9471 69.764C32.3603 69.608 31.9034 69.3072 31.5766 68.8615C31.2498 68.4158 31.0863 67.777 31.0863 66.9451V60.1484H29.5933V57.2292H31.0863V53.9534H34.3844V57.2292H36.8357V60.1484H34.3844V65.3183ZM45.2368 60.6275C44.598 60.7835 44.0111 61.1512 43.4763 61.7306C42.9415 62.31 42.6741 63.1568 42.6741 64.271V69.686H39.3538V57.4297H42.6741V59.0565C43.2238 58.3285 43.896 57.8346 44.6908 57.5746C45.4856 57.3146 46.2098 57.192 46.8635 57.2069V60.4604C46.4178 60.4158 45.8756 60.4715 45.2368 60.6275ZM57.9164 68.4604C57.6342 68.8466 57.1476 69.192 56.4568 69.4966C55.766 69.8011 55.0121 69.9534 54.195 69.9534C52.9322 69.9534 51.8366 69.6711 50.9081 69.1066C49.9796 68.5421 49.2702 67.7733 48.7799 66.8002C48.2897 65.8271 48.0446 64.7464 48.0446 63.5579C48.0446 62.3694 48.2897 61.2886 48.7799 60.3155C49.2702 59.3425 49.9796 58.5737 50.9081 58.0091C51.8366 57.4446 52.9322 57.1623 54.195 57.1623C55.0418 57.1623 55.7883 57.3072 56.4345 57.5969C57.0808 57.8866 57.5747 58.2543 57.9164 58.6999V57.4297H61.2145V69.686H57.9164V68.4604ZM57.1365 61.0509C56.5274 60.4047 55.7103 60.0816 54.6852 60.0816C53.6453 60.0816 52.8245 60.4047 52.2228 61.0509C51.6212 61.6971 51.3203 62.5328 51.3203 63.5579C51.3203 64.5532 51.6286 65.3777 52.2451 66.0314C52.8616 66.6851 53.675 67.0119 54.6852 67.0119C55.7252 67.0119 56.546 66.7036 57.1476 66.0871C57.7493 65.4706 58.0501 64.6275 58.0501 63.5579C58.0501 62.5328 57.7456 61.6971 57.1365 61.0509ZM77.0696 68.7724C75.6954 69.5894 74.1987 69.998 72.5794 69.998C70.9898 69.998 69.5227 69.6192 68.1783 68.8615C66.8338 68.1038 65.7679 67.0788 64.9805 65.7863C64.1931 64.4938 63.7994 63.0825 63.7994 61.5523C63.7994 60.037 64.1931 58.6331 64.9805 57.3406C65.7679 56.0481 66.8338 55.0231 68.1783 54.2654C69.5227 53.5077 70.9898 53.1289 72.5794 53.1289C74.1838 53.1289 75.6769 53.5337 77.0585 54.3434C78.4401 55.153 79.5246 56.2338 80.312 57.5857L77.0362 58.8559C76.5162 58.1131 75.8589 57.504 75.0641 57.0286C74.2693 56.5532 73.441 56.3155 72.5794 56.3155C71.6286 56.3155 70.7521 56.5569 69.9499 57.0398C69.1476 57.5226 68.5125 58.1651 68.0446 58.9673C67.5766 59.7696 67.3426 60.6312 67.3426 61.5523C67.3426 62.4734 67.5766 63.3387 68.0446 64.1484C68.5125 64.9581 69.1476 65.6043 69.9499 66.0871C70.7521 66.5699 71.6286 66.8114 72.5794 66.8114C73.441 66.8114 74.2693 66.5699 75.0641 66.0871C75.8589 65.6043 76.5162 64.9841 77.0362 64.2264L80.312 65.4966C79.5246 66.8634 78.4438 67.9553 77.0696 68.7724ZM91.8329 68.4604C91.5506 68.8466 91.0641 69.192 90.3733 69.4966C89.6824 69.8011 88.9285 69.9534 88.1114 69.9534C86.8486 69.9534 85.753 69.6711 84.8245 69.1066C83.896 68.5421 83.1866 67.7733 82.6964 66.8002C82.2061 65.8271 81.961 64.7464 81.961 63.5579C81.961 62.3694 82.2061 61.2886 82.6964 60.3155C83.1866 59.3425 83.896 58.5737 84.8245 58.0091C85.753 57.4446 86.8486 57.1623 88.1114 57.1623C88.9582 57.1623 89.7047 57.3072 90.351 57.5969C90.9972 57.8866 91.4912 58.2543 91.8329 58.6999V57.4297H95.1309V69.686H91.8329V68.4604ZM91.0529 61.0509C90.4438 60.4047 89.6267 60.0816 88.6017 60.0816C87.5617 60.0816 86.741 60.4047 86.1393 61.0509C85.5376 61.6971 85.2368 62.5328 85.2368 63.5579C85.2368 64.5532 85.545 65.3777 86.1616 66.0314C86.7781 66.6851 87.5915 67.0119 88.6017 67.0119C89.6416 67.0119 90.4624 66.7036 91.0641 66.0871C91.6657 65.4706 91.9666 64.6275 91.9666 63.5579C91.9666 62.5328 91.662 61.6971 91.0529 61.0509ZM104.267 60.6275C103.629 60.7835 103.042 61.1512 102.507 61.7306C101.972 62.31 101.705 63.1568 101.705 64.271V69.686H98.3844V57.4297H101.705V59.0565C102.254 58.3285 102.927 57.8346 103.721 57.5746C104.516 57.3146 105.24 57.192 105.894 57.2069V60.4604C105.448 60.4158 104.906 60.4715 104.267 60.6275ZM110.652 69.3963C109.634 68.9952 108.761 68.3155 108.033 67.3573C107.305 66.3991 106.942 65.1475 106.942 63.6024C106.942 62.0574 107.309 60.8095 108.045 59.8587C108.78 58.9079 109.66 58.232 110.685 57.8309C111.71 57.4297 112.683 57.2292 113.604 57.2292C114.674 57.2292 115.692 57.4669 116.657 57.9423C117.623 58.4177 118.414 59.1159 119.031 60.037C119.647 60.9581 119.97 62.05 120 63.3127C120 63.699 119.993 64.0333 119.978 64.3155C119.963 64.5978 119.948 64.7761 119.933 64.8504H110.262C110.44 65.712 110.886 66.2988 111.599 66.6108C112.312 66.9228 112.98 67.0788 113.604 67.0788C114.407 67.0788 115.045 66.9339 115.521 66.6442C115.996 66.3545 116.405 66.024 116.747 65.6526L119.331 67.1456C117.935 69.0472 116.026 69.998 113.604 69.998C112.654 69.998 111.669 69.7974 110.652 69.3963ZM111.331 60.8281C110.752 61.2812 110.425 61.8346 110.351 62.4882H116.479C116.435 62.102 116.286 61.7306 116.033 61.374C115.781 61.0175 115.443 60.7241 115.02 60.4938C114.596 60.2635 114.117 60.1484 113.582 60.1484C112.661 60.1484 111.911 60.375 111.331 60.8281Z" fill="#084B83"/>
<path d="M27.2886 82.1439H22.6666V75.1496H27.2886V76.2701H23.9972V77.9421H27.2449V79.0363H23.9972V80.9622H27.2886V82.1439ZM38.7894 82.1439H37.4326V79.0451H34.6751V82.1439H33.3183V75.1496H34.6751V77.9246H37.4326V75.1496H38.7894V82.1439ZM50.3515 82.1439H48.8546L48.3556 80.5507C48.3031 80.3757 48.2374 80.2152 48.1587 80.0693C48.0799 79.9234 47.985 79.7979 47.8742 79.6929C47.7633 79.5878 47.6305 79.5061 47.4759 79.4478C47.3212 79.3894 47.1388 79.3602 46.9287 79.3602H46.421V82.1439H45.0817V75.1496L47.8479 75.1409C48.1455 75.1409 48.4227 75.1919 48.6795 75.2941C48.9363 75.3962 49.1581 75.5377 49.3448 75.7186C49.5315 75.8995 49.6774 76.1125 49.7825 76.3577C49.8875 76.6028 49.9401 76.8683 49.9401 77.1542C49.9401 77.3585 49.908 77.5569 49.8438 77.7495C49.7796 77.9421 49.6891 78.1201 49.5724 78.2835C49.4557 78.4469 49.3171 78.5913 49.1566 78.7168C48.9961 78.8423 48.8196 78.9371 48.627 79.0013C48.8488 79.083 49.0297 79.2012 49.1697 79.3558C49.3098 79.5105 49.4207 79.6958 49.5024 79.9117C49.5432 80.0109 49.5812 80.1101 49.6162 80.2093C49.6512 80.3085 49.6877 80.4121 49.7256 80.5201C49.7635 80.6281 49.8044 80.7448 49.8481 80.8702C49.8919 80.9957 49.9401 81.1343 49.9926 81.2861C50.0568 81.4786 50.1166 81.6435 50.172 81.7806C50.2275 81.9178 50.2873 82.0389 50.3515 82.1439ZM48.5745 77.2505C48.5745 77.0871 48.5438 76.9383 48.4825 76.8041C48.4213 76.6699 48.3381 76.5532 48.2331 76.4539C48.128 76.3547 48.004 76.2774 47.861 76.222C47.718 76.1665 47.5649 76.1388 47.4015 76.1388H46.421V78.3185H47.4015C47.5649 78.3185 47.718 78.2937 47.861 78.2441C48.004 78.1945 48.128 78.123 48.2331 78.0296C48.3381 77.9363 48.4213 77.8239 48.4825 77.6926C48.5438 77.5613 48.5745 77.4139 48.5745 77.2505ZM68.6347 82.1439H63.8989V75.1496H65.282V80.8309H68.6347V82.1439ZM75.7586 82.1439H74.4018V75.1496H75.7586V82.1439ZM86.8567 76.3577H84.9221V82.1439H83.5478V76.3577H81.6132V75.1496H86.8567V76.3577ZM97.3333 82.1439H92.7113V75.1496H97.3333V76.2701H94.0419V77.9421H97.2895V79.0363H94.0419V80.9622H97.3333V82.1439Z" fill="#084B83"/>
</g>
<defs>
<clipPath id="clip0_349_805">
<rect width="120" height="82.1439" fill="white"/>
</clipPath>
</defs>
</svg>
