<svg width="151" height="40" viewBox="0 0 151 40" fill="none" xmlns="http://www.w3.org/2000/svg">
<path fill-rule="evenodd" clip-rule="evenodd" d="M20.1314 40C9.21597 39.9942 0.0457502 31.8605 0 20.0117C0.0457502 8.13994 9.69096 0 20.1547 0C32.118 0 39.9659 10.7271 39.9659 20.0112C39.9659 23.1711 39.9659 23.2967 38.9128 26.3247L15.3124 26.3364C14.7513 26.3306 14.2992 25.7354 14.2992 25.1743C14.2992 24.6131 14.7629 24.2983 15.3182 24.2983L20.1207 24.2525V23.7031H12.2382C11.6771 23.7031 11.2249 23.251 11.2249 22.6898C11.2249 22.1287 11.6887 21.6883 12.244 21.6883H20.1202L20.1144 21.0186H11.2536C10.6925 21.0128 10.2404 20.5607 10.2404 19.9996C10.2404 19.4384 10.6984 18.9863 11.2536 18.9863H20.1202V18.3108H13.2855C12.7244 18.305 12.2723 17.8529 12.2723 17.2918C12.2723 16.7307 12.736 16.3072 13.2855 16.3185H25.2317V15.6039H21.0931C20.5548 15.5981 20.1144 15.146 20.1144 14.5849C20.1144 14.0238 20.6351 13.5945 21.0931 13.5945L25.1859 13.5829C28.2256 13.5829 30.2745 16.3189 30.2745 18.3108H31.9058C31.4994 13.159 26.8917 8.13904 20.1543 8.14488C12.2839 8.13994 8.30545 14.6423 8.32833 20.0117C8.30545 26.3368 13.4402 31.7286 19.8856 31.8605C19.8856 29.8744 21.935 27.1379 24.9742 27.1379L29.0671 27.1496C29.525 27.1496 30.0457 27.5788 30.0457 28.1399C30.0457 28.7011 29.6048 29.1532 29.0671 29.159H24.9285V29.8744H36.9661C37.5156 29.8628 37.9794 30.2866 37.9794 30.8477C37.9794 31.4088 37.5272 31.861 36.9661 31.8668H30.0399V32.5423H38.9984C39.5537 32.5423 40.0117 32.9944 40.0117 33.5555C40.0117 34.1166 39.5595 34.5687 38.9984 34.5746H30.0457L30.0399 35.2442H38.0081C38.5634 35.2442 39.0271 35.6851 39.0271 36.2458C39.0271 36.8069 38.575 37.259 38.0139 37.259H30.0399V37.9L34.9338 37.9457C35.4891 37.9457 35.9529 38.2606 35.9529 38.8217C35.9529 39.3828 35.5008 39.978 34.9397 39.9839L20.1314 40Z" fill="#084B83"/>
<path d="M58.4357 8.78003C59.2592 9.21346 59.8938 9.79859 60.3396 10.5354C60.7855 11.2722 61.0084 12.0927 61.0084 12.9967C61.0084 13.9007 60.8009 14.7118 60.3861 15.4301C59.9712 16.1483 59.3489 16.7149 58.5192 17.1297C57.6895 17.5446 56.6865 17.752 55.51 17.752H52.9466V21.7086H50.0117V8.12989H55.5286C56.6431 8.12989 57.6121 8.3466 58.4357 8.78003ZM57.5162 14.557C57.8753 14.1236 58.0549 13.6035 58.0549 12.9967C58.0549 12.6004 57.962 12.2258 57.7762 11.8729C57.5905 11.5199 57.3149 11.232 56.9496 11.0091C56.5843 10.7862 56.1478 10.6747 55.64 10.6747H52.9466V15.2072H55.9372C56.6307 15.2072 57.157 14.9904 57.5162 14.557ZM65.1971 21.4671C64.3489 21.1327 63.6213 20.5662 63.0145 19.7674C62.4077 18.9687 62.1043 17.9254 62.1043 16.6375C62.1043 15.3496 62.4108 14.3093 63.0238 13.5168C63.6368 12.7242 64.3705 12.1608 65.225 11.8264C66.0795 11.4921 66.8906 11.3249 67.6584 11.3249C68.55 11.3249 69.3983 11.523 70.2032 11.9193C71.0082 12.3156 71.6676 12.8976 72.1815 13.6654C72.6955 14.4332 72.9648 15.3434 72.9896 16.396C72.9896 16.718 72.9834 16.9966 72.971 17.2319C72.9586 17.4672 72.9462 17.6158 72.9338 17.6777H64.8721C65.0207 18.396 65.3922 18.8851 65.9866 19.1452C66.581 19.4052 67.1383 19.5353 67.6584 19.5353C68.3271 19.5353 68.8596 19.4145 69.2559 19.173C69.6522 18.9316 69.9927 18.656 70.2775 18.3464L72.4323 19.591C71.2682 21.1761 69.6769 21.9686 67.6584 21.9686C66.8658 21.9686 66.0454 21.8015 65.1971 21.4671ZM65.7637 14.3248C65.2807 14.7025 65.0083 15.1638 64.9464 15.7087H70.0546C70.0175 15.3867 69.8937 15.0771 69.6831 14.7799C69.4726 14.4827 69.1909 14.2381 68.8379 14.0462C68.485 13.8542 68.0856 13.7583 67.6398 13.7583C66.872 13.7583 66.2467 13.9471 65.7637 14.3248ZM78.6737 18.0678C78.6737 18.5012 78.748 18.8634 78.8966 19.1545C79.0452 19.4455 79.3919 19.591 79.9368 19.591C80.1845 19.591 80.4198 19.5786 80.6427 19.5538V21.8943C80.1969 21.9439 79.782 21.9686 79.3981 21.9686C78.6056 21.9686 77.9647 21.9036 77.4756 21.7736C76.9864 21.6436 76.6056 21.3928 76.3332 21.0213C76.0607 20.6498 75.9245 20.1173 75.9245 19.4238V13.7583H74.6799V11.3249H75.9245V8.59428H78.6737V11.3249H80.717V13.7583H78.6737V18.0678ZM87.72 14.1576C87.1875 14.2877 86.6983 14.5942 86.2525 15.0771C85.8067 15.5601 85.5838 16.266 85.5838 17.1947V21.7086H82.816V11.4921H85.5838V12.8481C86.042 12.2413 86.6023 11.8295 87.2649 11.6128C87.9274 11.3961 88.5311 11.2939 89.076 11.3063V14.0183C88.7045 13.9812 88.2524 14.0276 87.72 14.1576ZM98.2894 20.6869C98.0541 21.0089 97.6486 21.2968 97.0727 21.5507C96.4969 21.8046 95.8684 21.9315 95.1873 21.9315C94.1347 21.9315 93.2214 21.6962 92.4474 21.2256C91.6734 20.755 91.0821 20.1142 90.6735 19.3031C90.2648 18.4919 90.0605 17.591 90.0605 16.6003C90.0605 15.6096 90.2648 14.7087 90.6735 13.8976C91.0821 13.0865 91.6734 12.4456 92.4474 11.975C93.2214 11.5044 94.1347 11.2692 95.1873 11.2692C95.8932 11.2692 96.5155 11.3899 97.0541 11.6314C97.5928 11.8729 98.0046 12.1794 98.2894 12.5509V11.4921H101.039V21.7086H98.2894V20.6869ZM97.6393 14.5106C97.1315 13.9719 96.4504 13.7025 95.596 13.7025C94.7291 13.7025 94.0449 13.9719 93.5434 14.5106C93.0418 15.0493 92.7911 15.7459 92.7911 16.6003C92.7911 17.43 93.048 18.1173 93.562 18.6622C94.0759 19.2071 94.7539 19.4795 95.596 19.4795C96.4628 19.4795 97.147 19.2226 97.6486 18.7086C98.1501 18.1947 98.4009 17.4919 98.4009 16.6003C98.4009 15.7459 98.147 15.0493 97.6393 14.5106ZM114.255 20.947C113.11 21.6281 111.862 21.9686 110.512 21.9686C109.187 21.9686 107.964 21.6529 106.843 21.0213C105.723 20.3897 104.834 19.5353 104.178 18.4579C103.522 17.3805 103.193 16.204 103.193 14.9285C103.193 13.6654 103.522 12.4951 104.178 11.4178C104.834 10.3404 105.723 9.4859 106.843 8.85433C107.964 8.22277 109.187 7.90698 110.512 7.90698C111.85 7.90698 113.094 8.24444 114.246 8.91935C115.397 9.59426 116.301 10.4952 116.958 11.6221L114.227 12.6809C113.794 12.0617 113.246 11.554 112.583 11.1577C111.921 10.7614 111.23 10.5633 110.512 10.5633C109.72 10.5633 108.989 10.7645 108.32 11.167C107.651 11.5695 107.122 12.105 106.732 12.7738C106.342 13.4425 106.147 14.1607 106.147 14.9285C106.147 15.6963 106.342 16.4177 106.732 17.0926C107.122 17.7675 107.651 18.3062 108.32 18.7086C108.989 19.1111 109.72 19.3123 110.512 19.3123C111.23 19.3123 111.921 19.1111 112.583 18.7086C113.246 18.3062 113.794 17.7892 114.227 17.1576L116.958 18.2164C116.301 19.3557 115.401 20.2659 114.255 20.947ZM126.561 20.6869C126.326 21.0089 125.921 21.2968 125.345 21.5507C124.769 21.8046 124.14 21.9315 123.459 21.9315C122.407 21.9315 121.493 21.6962 120.719 21.2256C119.945 20.755 119.354 20.1142 118.945 19.3031C118.537 18.4919 118.332 17.591 118.332 16.6003C118.332 15.6096 118.537 14.7087 118.945 13.8976C119.354 13.0865 119.945 12.4456 120.719 11.975C121.493 11.5044 122.407 11.2692 123.459 11.2692C124.165 11.2692 124.787 11.3899 125.326 11.6314C125.865 11.8729 126.277 12.1794 126.561 12.5509V11.4921H129.311V21.7086H126.561V20.6869ZM125.911 14.5106C125.403 13.9719 124.722 13.7025 123.868 13.7025C123.001 13.7025 122.317 13.9719 121.815 14.5106C121.314 15.0493 121.063 15.7459 121.063 16.6003C121.063 17.43 121.32 18.1173 121.834 18.6622C122.348 19.2071 123.026 19.4795 123.868 19.4795C124.735 19.4795 125.419 19.2226 125.921 18.7086C126.422 18.1947 126.673 17.4919 126.673 16.6003C126.673 15.7459 126.419 15.0493 125.911 14.5106ZM136.926 14.1576C136.394 14.2877 135.905 14.5942 135.459 15.0771C135.013 15.5601 134.79 16.266 134.79 17.1947V21.7086H132.023V11.4921H134.79V12.8481C135.249 12.2413 135.809 11.8295 136.471 11.6128C137.134 11.3961 137.738 11.2939 138.283 11.3063V14.0183C137.911 13.9812 137.459 14.0276 136.926 14.1576ZM142.248 21.4671C141.4 21.1327 140.673 20.5662 140.066 19.7674C139.459 18.9687 139.156 17.9254 139.156 16.6375C139.156 15.3496 139.462 14.3093 140.075 13.5168C140.688 12.7242 141.422 12.1608 142.276 11.8264C143.131 11.4921 143.942 11.3249 144.71 11.3249C145.601 11.3249 146.45 11.523 147.254 11.9193C148.059 12.3156 148.719 12.8976 149.233 13.6654C149.747 14.4332 150.016 15.3434 150.041 16.396C150.041 16.718 150.035 16.9966 150.022 17.2319C150.01 17.4672 149.997 17.6158 149.985 17.6777H141.923C142.072 18.396 142.443 18.8851 143.038 19.1452C143.632 19.4052 144.19 19.5353 144.71 19.5353C145.378 19.5353 145.911 19.4145 146.307 19.173C146.703 18.9316 147.044 18.656 147.329 18.3464L149.484 19.591C148.319 21.1761 146.728 21.9686 144.71 21.9686C143.917 21.9686 143.097 21.8015 142.248 21.4671ZM142.815 14.3248C142.332 14.7025 142.06 15.1638 141.998 15.7087H147.106C147.069 15.3867 146.945 15.0771 146.734 14.7799C146.524 14.4827 146.242 14.2381 145.889 14.0462C145.536 13.8542 145.137 13.7583 144.691 13.7583C143.923 13.7583 143.298 13.9471 142.815 14.3248Z" fill="#084B83"/>
<path d="M53.8645 32.0932H50.0117V26.2629H53.8645V27.1969H51.1208V28.5907H53.828V29.5028H51.1208V31.1081H53.8645V32.0932ZM63.4512 32.0932H62.3202V29.5101H60.0217V32.0932H58.8906V26.2629H60.0217V28.5761H62.3202V26.2629H63.4512V32.0932ZM73.0891 32.0932H71.8413L71.4254 30.7652C71.3816 30.6192 71.3269 30.4854 71.2612 30.3638C71.1955 30.2422 71.1165 30.1376 71.0241 30.05C70.9316 29.9625 70.821 29.8944 70.692 29.8457C70.5631 29.7971 70.4111 29.7728 70.236 29.7728H69.8128V32.0932H68.6963V26.2629L71.0022 26.2556C71.2503 26.2556 71.4813 26.2982 71.6954 26.3833C71.9094 26.4684 72.0943 26.5864 72.2499 26.7372C72.4056 26.888 72.5272 27.0656 72.6148 27.2699C72.7024 27.4742 72.7461 27.6956 72.7461 27.9339C72.7461 28.1042 72.7194 28.2696 72.6659 28.4301C72.6124 28.5907 72.537 28.739 72.4397 28.8752C72.3424 29.0114 72.2268 29.1318 72.0931 29.2364C71.9593 29.341 71.8121 29.4201 71.6516 29.4736C71.8365 29.5417 71.9873 29.6402 72.104 29.7691C72.2208 29.898 72.3132 30.0525 72.3813 30.2325C72.4153 30.3152 72.447 30.3979 72.4762 30.4806C72.5053 30.5633 72.5357 30.6496 72.5674 30.7396C72.599 30.8296 72.633 30.9269 72.6695 31.0315C72.706 31.1361 72.7461 31.2516 72.7899 31.3781C72.8434 31.5386 72.8933 31.6761 72.9395 31.7904C72.9857 31.9047 73.0356 32.0056 73.0891 32.0932ZM71.6078 28.0142C71.6078 27.878 71.5823 27.7539 71.5312 27.642C71.4801 27.5302 71.4108 27.4329 71.3232 27.3502C71.2357 27.2675 71.1323 27.203 71.0131 27.1568C70.8939 27.1106 70.7662 27.0875 70.63 27.0875H69.8128V28.9044H70.63C70.7662 28.9044 70.8939 28.8837 71.0131 28.8424C71.1323 28.801 71.2357 28.7415 71.3232 28.6636C71.4108 28.5858 71.4801 28.4921 71.5312 28.3827C71.5823 28.2732 71.6078 28.1504 71.6078 28.0142ZM88.3296 32.0932H84.3819V26.2629H85.5348V30.9987H88.3296V32.0932ZM94.2679 32.0932H93.1368V26.2629H94.2679V32.0932ZM103.519 27.2699H101.906V32.0932H100.761V27.2699H99.1481V26.2629H103.519V27.2699ZM112.252 32.0932H108.399V26.2629H112.252V27.1969H109.508V28.5907H112.216V29.5028H109.508V31.1081H112.252V32.0932Z" fill="#084B83"/>
</svg>
