<svg width="180" height="226" viewBox="0 0 180 226" fill="none" xmlns="http://www.w3.org/2000/svg">
<g clip-path="url(#clip0_1851_56735)">
<path d="M129.783 97.2006L147.664 64.5434C128.42 48.0223 109.536 46.1623 95.7194 46.152C83.7403 46.1557 71.4908 48.372 59.2376 53.3788L51.8746 38.5342C58.0449 31.9489 59.7088 21.8338 55.3813 13.1092C49.8597 1.97701 36.3171 -2.57045 25.264 2.99066C14.2109 8.55177 9.96541 22.2819 15.487 33.4141C19.8145 42.1387 28.7463 46.6898 37.7752 45.8543L45.0484 60.5178C36.2903 65.6164 28.8326 71.9244 22.3764 79.3457C14.6374 88.3376 8.73822 98.2674 5.23408 108.842C1.54484 119.511 0.160823 130.643 0.711852 142.426C1.35023 153.932 4.294 165.436 9.81562 176.568C15.3399 187.705 22.5198 197.078 31.5484 204.595C40.5664 212.118 50.3332 217.873 61.2034 221.216C72.166 224.745 83.3991 226.049 95.3758 225.121C107.355 224.199 119.05 220.864 130.664 215.021C146.138 207.235 157.75 197.22 165.496 184.977C173.233 172.731 177.751 158.631 179.235 143.049L143.498 137.375C143.029 147.115 140.263 155.928 135.472 163.909C130.679 171.885 123.676 178.19 114.458 182.828C107.826 186.165 101.105 187.922 94.1912 188.386C87.2828 188.847 80.8348 187.918 74.4799 185.777C68.3074 183.552 62.5054 180.208 57.4415 175.568C52.3776 170.927 47.9566 165.265 44.6409 158.58C41.4204 152.087 39.4928 145.403 39.03 138.448C38.3873 131.583 39.3097 125.089 41.0647 118.875C43.0022 112.563 46.1372 106.812 50.2818 101.712C54.6116 96.5185 59.8637 92.2521 66.3157 89.0059C76.0837 84.0913 85.298 82.2441 94.231 83.5467C103.627 84.8495 121.684 91.9974 129.78 97.1952L129.783 97.2006Z" fill="#08928F"/>
<path d="M88.7841 120.38C92.5567 127.986 101.677 131.051 109.049 127.342C116.416 123.636 119.46 114.45 115.687 106.844C111.912 99.2329 102.792 96.1675 95.4247 99.874C88.0524 103.583 85.0088 112.768 88.7841 120.38ZM101.968 100.063C103.994 99.0437 106.201 99.79 107.213 101.83C108.225 103.87 107.306 106.189 105.461 107.118C103.62 108.044 101.223 107.393 100.211 105.353C99.1988 103.313 99.9425 101.082 101.968 100.063ZM55.2493 137.252C59.022 144.858 68.1421 147.924 75.509 144.217C82.8813 140.508 85.9249 131.323 82.1522 123.717C78.3769 116.105 69.2569 113.04 61.8846 116.749C54.5124 120.458 51.474 129.641 55.2493 137.252ZM66.7674 117.773C68.7929 116.754 71.0055 117.498 72.0174 119.538C73.0292 121.578 72.111 123.897 70.2653 124.825C68.4249 125.751 66.0272 125.101 65.0153 123.061C64.0034 121.021 64.927 118.699 66.7674 117.773Z" fill="#1D2235"/>
<path d="M70.1708 124.634C72.1963 123.615 72.9347 121.387 71.9229 119.347C70.911 117.307 68.5186 116.653 66.6729 117.582C64.8325 118.508 63.909 120.83 64.9208 122.87C65.9327 124.91 68.3304 125.56 70.1708 124.634ZM105.366 106.926C107.397 105.905 108.13 103.679 107.118 101.639C106.106 99.5988 103.714 98.9456 101.868 99.8742C100.028 100.8 99.1043 103.122 100.116 105.162C101.128 107.202 103.341 107.946 105.366 106.926Z" fill="white"/>
</g>
<defs>
<clipPath id="clip0_1851_56735">
<rect width="180" height="226" fill="white"/>
</clipPath>
</defs>
</svg>
